<svg version="1.1" id="Layer_1" xmlns="http://www.w3.org/2000/svg" xmlns:xlink="http://www.w3.org/1999/xlink" x="0px" y="0px"
	 viewBox="0 0 800 800" enable-background="new 0 0 800 800" xml:space="preserve">
<g>
	<path fill="#FFFFFF" d="M478.9,134l26.3,132.8l4.1-7l24.1-92.7l3.7-14.3L527,102.1c-2.4-12.5-13.4-21.5-26.2-21.5H283.5
		c-12.9,0-23.9,8.9-26.3,21.5l-88.9,450.1l-19.5,99.3c-1.5,7.8,0.5,16,5.6,22.1c5.1,6.2,12.8,9.7,20.7,9.7h434.7c0,0,0.1,0,0.2,0
		c14.8,0,26.7-12,26.7-26.7c0-3-0.5-5.7-1.4-8.4l-18.5-94c-0.1-1.8-0.5-3.6-1-5.4L574.3,340l-40.6,70.2l23.9,120.4H439.4l87.9-152.3
		l40.6-70.3l11.6-20.2l64.6-63.6l-20.9-12.1l33.6-58.2c7.4-12.9,3-29.2-9.8-36.6c-4.2-2.3-8.8-3.6-13.3-3.6
		c-9.3,0-18.3,4.7-23.2,13.4L577,185.4l-22.7-13.1l-7.5,28.7v0.1l-17.4,66.9l-17.7,30.8l-146.2,232l0,0l0,0H227l78.4-396.6
		L478.9,134z"/>
</g>
</svg>
