<?xml version="1.0" encoding="utf-8"?>
<!-- Generator: Adobe Illustrator 18.0.0, SVG Export Plug-In . SVG Version: 6.00 Build 0)  -->
<!DOCTYPE svg PUBLIC "-//W3C//DTD SVG 1.1//EN" "http://www.w3.org/Graphics/SVG/1.1/DTD/svg11.dtd">
<svg version="1.1" id="Layer_1" xmlns="http://www.w3.org/2000/svg" xmlns:xlink="http://www.w3.org/1999/xlink" x="0px" y="0px"
	 viewBox="0 0 800 800" enable-background="new 0 0 800 800" xml:space="preserve">
<path fill="#0F0F0F" d="M-180,108.1h91.1v387h45.5v204.9H-180V108.1z M-20.6,699.9h159.4V495.1H93.2v-387H24.9v387h-45.5V699.9z
	 M161.5,699.9h136.6V108.1H207v387h-45.5V699.9z M320.8,699.9h136.6V495.1h-45.5v-387h-91.1V699.9z M480.2,699.9h159.4V495.1H594
	v-387h-68.3v387h-45.5V699.9z M662.3,699.9h159.4V495.1h-45.5v-387h-68.3v387h-45.5V699.9z M844.4,699.9H981V108.1h-91.1v387h-45.5"
	/>
</svg>
